<svg width="62" height="57" viewBox="0 0 62 57" fill="none" xmlns="http://www.w3.org/2000/svg">
<path d="M0 28.6106C0.0408061 26.2355 0.808948 24.2742 2.39388 22.6698C9.06972 15.9126 15.7514 9.16118 22.4353 2.41229C23.8001 1.0342 25.4538 0.249887 27.3737 0.0459928C28.5573 -0.0797418 29.7129 0.0557344 30.8396 0.441547C30.9501 0.479381 31.0479 0.483458 31.1615 0.444945C34.1684 -0.57543 37.3753 0.186227 39.6171 2.45194C46.278 9.18361 52.9388 15.9151 59.598 22.6481C60.8516 23.9154 61.6424 25.436 61.8973 27.2074C62.2901 29.9362 61.5605 32.3446 59.6337 34.3018C52.9538 41.0867 46.2504 47.848 39.5481 54.6105C38.1954 55.9754 36.5479 56.7473 34.6442 56.9505C33.453 57.0776 32.29 56.9424 31.157 56.5511C31.0528 56.5151 30.9609 56.5119 30.8557 56.5491C29.8199 56.9147 28.7504 57.0588 27.6589 56.9784C25.6455 56.8304 23.8971 56.0559 22.4647 54.613C18.5022 50.6219 14.5512 46.6194 10.5957 42.6213C7.86527 39.8617 5.13395 37.103 2.4051 34.3419C1.11679 33.0383 0.349318 31.4674 0.0863206 29.6471C0.0313893 29.2672 0.0215241 28.8809 0 28.6104L0 28.6106ZM33.8018 1.06229C33.6227 1.06229 33.4433 1.05912 33.2644 1.06365C33.1752 1.06592 33.0864 1.08268 32.9974 1.0931C31.3508 1.2868 29.9335 1.97166 28.7627 3.15447C22.0793 9.90404 15.3953 16.6529 8.72309 23.4136C7.14152 25.0162 6.47629 26.9854 6.68301 29.2318C6.83929 30.9296 7.53949 32.3926 8.7343 33.601C15.4079 40.3499 22.079 47.1011 28.7632 53.8391C30.3788 55.4678 32.3575 56.1417 34.6256 55.8996C36.2659 55.7242 37.6766 55.0276 38.8416 53.8511C45.5309 47.097 52.2211 40.3436 58.8965 33.5752C60.4623 31.9873 61.1287 30.0354 60.9294 27.8003C60.776 26.0812 60.0749 24.608 58.87 23.3891C52.2025 16.645 45.5331 9.90245 38.8595 3.16466C37.4668 1.7587 35.7677 1.0709 33.8023 1.06252L33.8018 1.06229ZM29.5457 1.181C29.4589 1.16129 29.4248 1.15178 29.3901 1.14566C28.73 1.03148 28.0668 1.01517 27.402 1.09287C25.739 1.2868 24.316 1.98548 23.133 3.18075C16.4624 9.92125 9.78719 16.6575 3.12705 23.4088C1.49099 25.0674 0.830696 27.0995 1.1049 29.4244C1.29615 31.0462 1.98807 32.4345 3.12526 33.5933C3.98779 34.4723 4.8566 35.3448 5.72272 36.2202C11.5423 42.1023 17.3534 47.9935 23.1871 53.8611C24.9003 55.5842 27.0024 56.2056 29.3896 55.8508C29.4277 55.8452 29.4638 55.8243 29.525 55.8017C29.4477 55.7469 29.3948 55.707 29.3396 55.6703C28.8636 55.3543 28.4235 54.9938 28.0208 54.5867C21.3403 47.8346 14.6521 41.0903 7.98455 34.3251C6.13953 32.4529 5.37991 30.1559 5.66331 27.5279C5.86891 25.6213 6.67247 23.9902 8.0119 22.6354C14.6687 15.903 21.3293 9.17342 27.9883 2.4422C28.3964 2.02965 28.8385 1.66038 29.3208 1.34004C29.3822 1.29926 29.4412 1.25486 29.5457 1.18078V1.181Z" fill="black"/>
<path d="M33.8018 1.06232C35.7675 1.07092 37.4665 1.7585 38.8591 3.16446C45.5329 9.90225 52.2022 16.6448 58.8696 23.3889C60.0747 24.6077 60.7756 26.0812 60.9289 27.8C61.1283 30.0352 60.4619 31.9873 58.896 33.575C52.2206 40.3434 45.5304 47.0966 38.8412 53.8509C37.6762 55.0274 36.2654 55.7242 34.6251 55.8993C32.357 56.1417 30.3784 55.4675 28.7627 53.8389C22.0786 47.1009 15.4074 40.3495 8.73385 33.6008C7.53904 32.3924 6.83861 30.9296 6.68256 29.2316C6.47584 26.9849 7.14107 25.0158 8.72264 23.4134C15.3953 16.6527 22.0792 9.90383 28.7627 3.15427C29.9338 1.97168 31.3508 1.28683 32.9974 1.0929C33.0864 1.08248 33.1752 1.06571 33.2644 1.06345C33.4435 1.05869 33.6227 1.06209 33.8018 1.06209V1.06232ZM28.6488 27.5123C28.5703 27.5699 28.5031 27.6075 28.4499 27.6598C27.7645 28.3333 27.0814 29.0091 26.3971 29.6836C24.3763 31.6758 22.3492 33.6618 20.3369 35.6631C19.4863 36.5093 19.1695 37.5527 19.4316 38.7308C19.7096 39.9793 20.4878 40.8212 21.6887 41.204C22.8895 41.5869 23.9841 41.3123 24.905 40.4462C25.6973 39.7009 26.459 38.9218 27.2338 38.1574C29.1575 36.2594 31.0813 34.3611 33.0054 32.4633C33.0467 32.4225 33.0935 32.3877 33.1525 32.3376C33.968 33.2114 34.7749 34.0761 35.5908 34.9504C35.5179 35.0265 35.4623 35.0865 35.4049 35.1445C35.0092 35.5451 34.6101 35.9424 34.2182 36.3468C33.9637 36.6094 33.9671 36.9266 34.2146 37.1923C34.2556 37.2363 34.2987 37.2779 34.341 37.3208C35.1491 38.1375 35.9569 38.9542 36.765 39.7707C37.4147 40.427 38.0627 41.0853 38.7156 41.7382C39.5528 42.5756 40.5557 42.9138 41.7222 42.7314C43.2596 42.4908 44.5049 41.0846 44.5807 39.5144C44.6323 38.4438 44.2852 37.5308 43.5341 36.773C42.1175 35.3437 40.7023 33.9132 39.2864 32.4835C39.2019 32.3981 39.1203 32.309 39.0288 32.2318C38.8086 32.0453 38.5089 32.0481 38.2889 32.2343C38.2376 32.2778 38.1918 32.3283 38.1443 32.3763C37.6266 32.8992 37.1094 33.4225 36.5914 33.9452C36.5343 34.003 36.4737 34.0576 36.3973 34.1305C35.582 33.2572 34.7756 32.3931 33.9444 31.5028C34.0222 31.44 34.0848 31.3974 34.1379 31.3451C34.8067 30.687 35.4742 30.0272 36.1423 29.3684C37.0242 28.4987 37.9071 27.6299 38.7876 26.7586C38.8669 26.6802 38.942 26.6433 39.0616 26.6496C39.2225 26.6582 39.3893 26.6401 39.5474 26.6048C39.8678 26.533 40.1837 26.4414 40.5016 26.3597C40.5649 26.3433 40.6297 26.3341 40.722 26.3159C40.7115 26.4727 40.7034 26.6059 40.6931 26.7391C40.6815 26.8895 40.6622 27.0395 40.6566 27.19C40.6469 27.4505 40.7261 27.6881 40.905 27.8732C41.3431 28.3268 41.7749 28.7892 42.2415 29.2114C42.681 29.609 43.2222 29.7361 43.8081 29.6487C44.2459 29.5832 44.6076 29.3709 44.9168 29.0576C45.4441 28.5232 45.9733 27.9904 46.5008 27.4561C46.8598 27.093 47.2275 26.738 47.5739 26.3633C48.2965 25.5812 48.2795 24.3805 47.5423 23.6182C47.1611 23.2242 46.7717 22.8386 46.3867 22.4483C46.1683 22.2267 45.906 22.1209 45.597 22.1458C45.3367 22.1667 45.0769 22.1957 44.8168 22.2197C44.7392 22.2269 44.6612 22.2294 44.5592 22.2353C44.5926 21.941 44.6125 21.678 44.6545 21.4186C44.7249 20.9823 44.6074 20.6277 44.2912 20.3124C43.1904 19.2154 42.1023 18.1053 41.0086 17.0009C40.3532 16.3389 39.6133 15.7952 38.775 15.3938C37.1165 14.5993 35.3971 14.3768 33.6106 14.8609C32.8752 15.0601 32.1956 15.3847 31.6001 15.8718C31.3718 16.0585 31.175 16.2739 31.0609 16.5548C30.7983 17.2023 31.2183 17.9035 31.9077 17.9617C32.0711 17.9755 32.2359 17.9733 32.4001 17.9733C32.8563 17.9733 33.3106 17.9955 33.7588 18.0902C34.4982 18.2465 35.1632 18.548 35.6924 19.1112C35.7316 19.1529 35.763 19.2023 35.8065 19.2592C35.7047 19.3652 35.6125 19.4626 35.5188 19.5587C35.1197 19.9667 34.7161 20.3702 34.3222 20.7829C34.0303 21.089 33.9704 21.4526 34.1041 21.8518C34.1227 21.9077 34.1442 21.9626 34.1664 22.0228C32.5913 23.5758 31.0221 25.1227 29.4416 26.6807C27.8883 25.0164 26.3536 23.3726 24.7922 21.6998C24.8722 21.6336 24.9406 21.586 24.9987 21.528C25.3756 21.1511 25.7545 20.7759 26.124 20.3917C26.4034 20.1015 26.3529 19.7034 26.0211 19.48C25.9901 19.4592 25.9574 19.4406 25.9253 19.4214C24.6086 18.6334 23.2918 17.8448 21.9745 17.0578C21.627 16.85 21.4019 16.8804 21.114 17.1708C20.6013 17.688 20.0892 18.2059 19.5773 18.7241C19.5307 18.7712 19.4878 18.8221 19.4338 18.8817C19.5576 19.0134 19.6742 19.1375 19.8033 19.2752C19.6448 19.3835 19.5011 19.4819 19.3562 19.5809C19.3827 19.6307 19.3952 19.6579 19.4107 19.6833C20.2217 21.004 21.0311 22.3257 21.8456 23.6442C22.0799 24.0235 22.4741 24.0683 22.79 23.7571C23.1429 23.4093 23.4886 23.0543 23.8384 22.7032C23.8895 22.6517 23.9453 22.6053 24.011 22.5457C25.5502 24.1943 27.0764 25.8291 28.6484 27.513L28.6488 27.5123Z" fill="#FFEA52"/>
<path d="M29.5457 1.18073C29.4414 1.25481 29.3822 1.29922 29.3208 1.33999C28.8383 1.66033 28.3961 2.02983 27.9883 2.44215C21.3293 9.17337 14.6687 15.903 8.01145 22.636C6.67203 23.9908 5.86824 25.6219 5.66286 27.5286C5.37968 30.1563 6.13908 32.4535 7.9841 34.3257C14.6516 41.0909 21.34 47.8353 28.0204 54.5873C28.423 54.9944 28.8634 55.3546 29.3392 55.6709C29.3943 55.7076 29.4472 55.7472 29.5246 55.8023C29.4634 55.825 29.4275 55.8458 29.3892 55.8515C27.002 56.2062 24.8998 55.5846 23.1866 53.8617C17.3529 47.9939 11.5419 42.1029 5.72227 36.2208C4.85615 35.3454 3.98734 34.473 3.12481 33.594C1.98762 32.4352 1.29571 31.0466 1.10446 29.425C0.830471 27.0999 1.49054 25.0678 3.1266 23.4095C9.78719 16.6574 16.4624 9.92121 23.133 3.18048C24.3157 1.9852 25.739 1.28653 27.402 1.0926C28.067 1.01512 28.73 1.03121 29.3901 1.14539C29.4248 1.15128 29.4589 1.16079 29.5457 1.18073Z" fill="#FFEA52"/>
<path d="M28.6488 27.5123C27.0767 25.8283 25.5507 24.1938 24.0115 22.545C23.946 22.6045 23.89 22.651 23.8389 22.7024C23.4891 23.0533 23.1431 23.4086 22.7905 23.7563C22.4746 24.0676 22.0804 24.0227 21.8461 23.6435C21.0315 22.325 20.2224 21.0031 19.4112 19.6825C19.3957 19.6572 19.3832 19.63 19.3567 19.5801C19.5015 19.4811 19.6455 19.3828 19.8038 19.2745C19.6746 19.137 19.5578 19.0128 19.4343 18.881C19.4883 18.8214 19.5311 18.7704 19.5778 18.7233C20.0896 18.2052 20.6017 17.6871 21.1145 17.1701C21.4024 16.8799 21.6273 16.8495 21.975 17.0571C23.2925 17.8443 24.609 18.6327 25.9258 19.4206C25.9579 19.4399 25.9906 19.4585 26.0215 19.4793C26.3534 19.7027 26.4036 20.1007 26.1245 20.3909C25.7547 20.7752 25.3758 21.1501 24.9992 21.5273C24.9411 21.5853 24.8727 21.6329 24.7927 21.699C26.3543 23.3719 27.8888 25.0159 29.4421 26.6799C31.0225 25.1217 32.5916 23.5749 34.1669 22.0221C34.1449 21.9618 34.1234 21.907 34.1045 21.851C33.9709 21.4519 34.031 21.0883 34.3227 20.7822C34.7166 20.3692 35.1202 19.9657 35.5193 19.5579C35.613 19.4621 35.7052 19.3645 35.8069 19.2584C35.7635 19.2016 35.7321 19.1524 35.6928 19.1105C35.1637 18.5473 34.4987 18.2458 33.7592 18.0894C33.311 17.9947 32.8568 17.9723 32.4005 17.9725C32.2364 17.9725 32.0714 17.9748 31.9082 17.961C31.2187 17.9028 30.7988 17.2016 31.0613 16.5541C31.1752 16.273 31.3723 16.0575 31.6006 15.8711C32.1961 15.384 32.8756 15.0596 33.611 14.8602C35.3975 14.3763 37.117 14.5985 38.7755 15.3931C39.6136 15.7945 40.3537 16.3382 41.0091 17.0002C42.1025 18.1046 43.1908 19.2147 44.2917 20.3117C44.6081 20.6268 44.7253 20.9816 44.6549 21.4179C44.613 21.6773 44.5933 21.9403 44.5596 22.2346C44.6617 22.2285 44.7397 22.226 44.8173 22.219C45.0773 22.1949 45.3372 22.166 45.5975 22.1451C45.9065 22.1202 46.1686 22.226 46.3872 22.4475C46.7721 22.8379 47.1616 23.2235 47.5427 23.6174C48.28 24.3798 48.2972 25.5805 47.5744 26.3625C47.228 26.7375 46.8603 27.0923 46.5013 27.4554C45.9735 27.9896 45.4446 28.5225 44.9173 29.0569C44.6078 29.3702 44.2464 29.5827 43.8085 29.6479C43.2229 29.7354 42.6814 29.6083 42.242 29.2107C41.7754 28.7884 41.3436 28.326 40.9055 27.8725C40.7266 27.6874 40.6474 27.4497 40.657 27.1892C40.6627 27.0388 40.6819 26.8886 40.6936 26.7384C40.7039 26.6052 40.712 26.472 40.7225 26.3152C40.6301 26.3333 40.5653 26.3428 40.5021 26.3589C40.184 26.4407 39.8681 26.5324 39.5479 26.604C39.3898 26.6394 39.223 26.6575 39.062 26.6489C38.9427 26.6426 38.8674 26.6793 38.788 26.7579C37.9076 27.6292 37.0246 28.498 36.1428 29.3677C35.4747 30.0265 34.8072 30.6862 34.1384 31.3443C34.0852 31.3967 34.0227 31.4393 33.9449 31.502C34.776 32.3924 35.5825 33.2564 36.3977 34.1298C36.4742 34.0568 36.5345 34.0022 36.5919 33.9444C37.1098 33.4218 37.6271 32.8985 38.1448 32.3756C38.1923 32.3276 38.2378 32.277 38.2894 32.2335C38.5093 32.0473 38.8091 32.0446 39.0293 32.2311C39.1205 32.3083 39.2024 32.3976 39.2869 32.4828C40.7028 33.9125 42.118 35.3432 43.5346 36.7722C44.2854 37.5298 44.6327 38.443 44.5812 39.5137C44.5054 41.0839 43.2601 42.4901 41.7227 42.7307C40.5564 42.9131 39.5533 42.5748 38.7161 41.7375C38.0632 41.0844 37.4152 40.4262 36.7654 39.7699C35.9572 38.9534 35.1493 38.1367 34.3415 37.32C34.2994 37.2774 34.2561 37.2355 34.2151 37.1916C33.9675 36.9261 33.9642 36.6087 34.2186 36.3461C34.6106 35.9417 35.0097 35.5443 35.4054 35.1438C35.4628 35.0856 35.5184 35.0258 35.5913 34.9496C34.7754 34.0754 33.9684 33.2107 33.153 32.3369C33.094 32.3869 33.0472 32.4218 33.0059 32.4626C31.0817 34.3604 29.1582 36.2586 27.2343 38.1567C26.4594 38.921 25.6978 39.7001 24.9054 40.4455C23.9846 41.3116 22.89 41.5864 21.6891 41.2033C20.4881 40.8202 19.7098 39.9786 19.432 38.7301C19.1697 37.552 19.4867 36.5085 20.3374 35.6624C22.3494 33.661 24.3765 31.6751 26.3975 29.6828C27.0818 29.0082 27.765 28.3324 28.4504 27.6591C28.5035 27.6067 28.5708 27.5691 28.6493 27.5116L28.6488 27.5123ZM34.9706 22.8277C34.418 23.3723 33.8888 23.8938 33.3597 24.4154C31.6062 26.1439 29.8526 27.8725 28.0991 29.6011C26.4899 31.1873 24.8808 32.7739 23.2721 34.3606C22.5452 35.0776 21.8113 35.7874 21.0952 36.5153C20.5551 37.0642 20.3641 37.74 20.5363 38.4926C20.7268 39.325 21.2519 39.8818 22.0566 40.1247C22.86 40.3673 23.5801 40.1607 24.1803 39.5708C25.7917 37.9868 27.398 36.3975 29.0067 34.8105C30.4923 33.3448 31.9783 31.8795 33.4642 30.4139C34.9285 28.9694 36.3928 27.5247 37.8567 26.0798C37.9141 26.0232 37.9683 25.9629 38.0318 25.8963C37.0078 24.87 35.9962 23.8558 34.9706 22.8279V22.8277ZM39.2349 25.5082C39.6618 25.3972 40.0719 25.2862 40.4842 25.184C41.277 24.9876 41.9655 25.6113 41.8628 26.4278C41.8402 26.6072 41.8283 26.7884 41.8001 26.967C41.7792 27.0988 41.8162 27.1928 41.9117 27.2862C42.2337 27.6009 42.5462 27.9255 42.8642 28.2445C43.2498 28.631 43.7294 28.6348 44.1126 28.249C44.9751 27.3811 45.8356 26.5112 46.6943 25.6396C47.069 25.2595 47.067 24.7581 46.6919 24.3723C46.3778 24.0495 46.0556 23.7346 45.7444 23.409C45.6509 23.3114 45.5567 23.2853 45.4267 23.3014C45.1307 23.3383 44.8332 23.3775 44.5354 23.3839C43.8695 23.3982 43.3599 22.8295 43.4251 22.1626C43.45 21.9075 43.4686 21.6503 43.515 21.3991C43.5449 21.2376 43.5009 21.1349 43.3895 21.023C42.3191 19.9489 41.2552 18.8685 40.1864 17.7927C40.0174 17.6225 39.8425 17.4562 39.6555 17.3069C38.0813 16.0505 36.3141 15.5077 34.3151 15.865C33.6541 15.9832 33.0407 16.2374 32.4862 16.6252C32.4185 16.6726 32.3322 16.7079 32.3095 16.7983C32.7523 16.8341 33.185 16.8523 33.6133 16.9075C34.331 17.0002 35.0097 17.2224 35.6312 17.6055C36.1948 17.9531 36.6601 18.4037 37.0105 18.9709C37.1854 19.2539 37.1605 19.4902 36.9399 19.7328C36.9096 19.7661 36.8769 19.7974 36.8455 19.8296C36.3462 20.3388 35.8466 20.8477 35.3482 21.3576C35.3088 21.398 35.2765 21.4458 35.2352 21.497C36.5767 22.8422 37.9058 24.1752 39.2342 25.5075L39.2349 25.5082ZM35.3859 36.8237C35.4507 36.8694 35.5269 36.9086 35.5845 36.9664C36.3634 37.7477 37.1399 38.5318 37.9168 39.3155C38.4717 39.875 39.0221 40.4396 39.5822 40.9937C40.4151 41.8179 41.7342 41.8573 42.6198 41.0932C43.6751 40.1825 43.7487 38.6134 42.7702 37.6186C41.4384 36.2648 40.0976 34.92 38.7602 33.5715C38.73 33.5412 38.6957 33.5149 38.6759 33.4979C37.5887 34.5969 36.513 35.6843 35.3859 36.8237ZM22.4468 22.4358C23.2328 21.6315 23.9956 20.8515 24.7635 20.0658C23.7512 19.4605 22.7203 18.8441 21.7169 18.2442C21.3255 18.6386 20.9567 19.0106 20.5766 19.3937C21.1918 20.3946 21.8174 21.4118 22.4468 22.4358Z" fill="black"/>
<path d="M34.9708 22.8275C35.9964 23.8556 37.008 24.8696 38.032 25.8959C37.9685 25.9625 37.9143 26.0227 37.8569 26.0794C36.393 27.5243 34.9287 28.969 33.4644 30.4135C31.9788 31.879 30.4927 33.3443 29.0069 34.8101C27.3984 36.3971 25.7922 37.9866 24.1805 39.5704C23.5803 40.1603 22.8602 40.3669 22.0568 40.1243C21.2521 39.8812 20.727 39.3245 20.5365 38.4922C20.3643 37.7396 20.5553 37.0638 21.0954 36.5149C21.8115 35.787 22.5454 35.0772 23.2723 34.3602C24.881 32.7734 26.4901 31.1871 28.0993 29.6006C29.8528 27.8718 31.6064 26.1435 33.3599 24.4149C33.889 23.8934 34.4182 23.3719 34.9708 22.8273V22.8275Z" fill="white"/>
<path d="M39.2351 25.508C37.9066 24.1757 36.5773 22.8427 35.2361 21.4974C35.2773 21.4462 35.3094 21.3984 35.3491 21.3581C35.8475 20.8481 36.347 20.3391 36.8463 19.83C36.878 19.7979 36.9105 19.7668 36.9407 19.7333C37.1614 19.4904 37.1863 19.2544 37.0114 18.9714C36.6609 18.4041 36.1957 17.9535 35.632 17.606C35.0105 17.2229 34.3318 17.0004 33.6141 16.908C33.1859 16.8527 32.7532 16.8346 32.3104 16.7988C32.333 16.7084 32.4193 16.6731 32.487 16.6257C33.0417 16.2379 33.655 15.9837 34.3159 15.8654C36.315 15.5082 38.0822 16.051 39.6564 17.3074C39.8434 17.4567 40.0182 17.623 40.1873 17.7931C41.2561 18.8688 42.32 19.9492 43.3904 21.0235C43.5018 21.1354 43.5457 21.238 43.5159 21.3996C43.4693 21.651 43.4509 21.9079 43.426 22.163C43.3608 22.83 43.8704 23.3986 44.5363 23.3844C44.8338 23.378 45.1313 23.3386 45.4275 23.3019C45.5573 23.2858 45.6517 23.3119 45.7452 23.4095C46.0564 23.7351 46.3788 24.0497 46.6927 24.3728C47.0676 24.7584 47.0696 25.2597 46.6952 25.6401C45.8365 26.5119 44.976 27.3816 44.1134 28.2495C43.7303 28.6351 43.2504 28.6312 42.865 28.245C42.5469 27.9262 42.2346 27.6016 41.9126 27.2867C41.8171 27.1933 41.7801 27.0993 41.8009 26.9674C41.8292 26.7889 41.8411 26.6077 41.8637 26.4283C41.9664 25.6116 41.2779 24.9879 40.485 25.1845C40.0727 25.2867 39.6626 25.3977 39.2358 25.5087L39.2351 25.508Z" fill="white"/>
<path d="M35.3861 36.8234C36.5132 35.6841 37.589 34.5969 38.6762 33.4977C38.6957 33.5147 38.7302 33.5407 38.7605 33.5713C40.0979 34.9197 41.4386 36.2645 42.7704 37.6184C43.7489 38.6132 43.6754 40.182 42.62 41.093C41.7344 41.8573 40.4154 41.8177 39.5824 40.9935C39.0223 40.4394 38.4719 39.8748 37.917 39.3152C37.1401 38.5316 36.3637 37.7477 35.5848 36.9661C35.5271 36.9081 35.4509 36.8692 35.3861 36.8234Z" fill="white"/>
<path d="M22.4467 22.4357C21.8172 21.4117 21.1918 20.3945 20.5766 19.3936C20.9569 19.0103 21.3257 18.6386 21.7169 18.2441C22.7203 18.844 23.7512 19.4605 24.7635 20.0658C23.9956 20.8515 23.233 21.6315 22.4467 22.4357Z" fill="white"/>
</svg>
